<svg width="16" height="16" viewBox="0 0 16 16" fill="none" xmlns="http://www.w3.org/2000/svg">
<path fill-rule="evenodd" clip-rule="evenodd" d="M14.0726 0.2368C14.0809 0.261664 14.0861 0.287458 14.0881 0.3136L14.0894 0.32V2.88C14.0894 3.05673 13.9462 3.2 13.7694 3.2C13.5927 3.2 13.4494 3.05673 13.4494 2.88V1.11923C8.86609 5.79373 1.83198 9.52435 1.75812 9.56314C1.65653 9.62086 1.53155 9.61862 1.43209 9.5573C1.33263 9.49598 1.2745 9.38532 1.28045 9.26863C1.28639 9.15193 1.35547 9.04776 1.46065 8.99686C1.53265 8.95872 8.51575 5.2544 13.0235 0.64H11.2094C11.0327 0.64 10.8894 0.496731 10.8894 0.32C10.8894 0.143269 11.0327 0 11.2094 0H13.7694C13.7849 0.00183928 13.8002 0.00487779 13.8151 0.009088C13.8389 0.011077 13.8624 0.0158455 13.8851 0.023296C13.906 0.032833 13.9258 0.0447285 13.9441 0.058752C13.9588 0.0661527 13.9729 0.0747131 13.9863 0.084352L13.9906 0.090112C14.0059 0.106998 14.0193 0.125496 14.0306 0.14528C14.0424 0.159914 14.053 0.175546 14.0621 0.192C14.0666 0.206669 14.0701 0.221639 14.0726 0.2368ZM12.4894 4.48H11.8494C11.3192 4.48 10.8894 4.90981 10.8894 5.44V15.04C10.8894 15.5702 11.3192 16 11.8494 16H12.4894C13.0196 16 13.4494 15.5702 13.4494 15.04V5.44C13.4494 4.90981 13.0196 4.48 12.4894 4.48ZM7.36943 8.32H8.00943C8.53962 8.32 8.96943 8.74981 8.96943 9.28V15.04C8.96943 15.5702 8.53962 16 8.00943 16H7.36943C6.83924 16 6.40943 15.5702 6.40943 15.04V9.28C6.40943 8.74981 6.83924 8.32 7.36943 8.32ZM4.48943 15.04V12.48C4.48943 11.9498 4.05962 11.52 3.52943 11.52H2.88943C2.35923 11.52 1.92943 11.9498 1.92943 12.48V15.04C1.92943 15.5702 2.35923 16 2.88943 16H3.52943C4.05962 16 4.48943 15.5702 4.48943 15.04Z" fill="#31DF62"/>
</svg>
