<svg width="17" height="17" viewBox="0 0 17 17" fill="none" xmlns="http://www.w3.org/2000/svg">
<path d="M15.3545 9.04735L7.26245 14.8263C7.04949 14.9837 6.76714 15.0108 6.52808 14.897C6.28901 14.7832 6.13214 14.5468 6.12005 14.2823V11.7569L1.82245 14.8262C1.60949 14.9835 1.32714 15.0107 1.08808 14.8969C0.849014 14.783 0.692142 14.5467 0.680054 14.2822V2.72437C0.692142 2.45986 0.849014 2.22354 1.08808 2.1097C1.32714 1.99586 1.60949 2.02303 1.82245 2.18037L6.12005 5.24975V2.72437C6.13214 2.45986 6.28901 2.22354 6.52808 2.1097C6.76714 1.99586 7.04949 2.02303 7.26245 2.18037L15.3545 7.95935C15.5334 8.08264 15.6403 8.28604 15.6403 8.50335C15.6403 8.72065 15.5334 8.92406 15.3545 9.04735Z" fill="#19DB60"/>
</svg>
