<svg width="15" height="15" viewBox="0 0 15 15" fill="none" xmlns="http://www.w3.org/2000/svg">
<path fill-rule="evenodd" clip-rule="evenodd" d="M12.9274 4.6553C13.0132 4.63632 13.1009 4.62669 13.1888 4.62656C13.5147 4.62846 13.8259 4.76223 14.0516 4.99736C14.2773 5.2325 14.3981 5.54898 14.3866 5.87468C14.3442 8.0736 14.0851 10.263 13.6131 12.4111C13.421 13.2259 12.6932 13.8012 11.856 13.8H5.40001L3.60001 12.9047V13.5C3.60001 13.9971 3.19706 14.4 2.70001 14.4H1.50001C1.00295 14.4 0.600006 13.9971 0.600006 13.5V6.30002C0.600006 5.80296 1.00295 5.40002 1.50001 5.40002H2.70001C3.02723 5.40089 3.32798 5.58 3.48463 5.8673C4.55245 5.26286 5.54683 2.78438 5.87791 1.0415C5.99637 0.434141 6.52997 -0.00315476 7.14877 1.71438e-05C7.48018 -0.000444622 7.79821 0.130793 8.03285 0.364849C8.26749 0.598904 8.39952 0.916598 8.39989 1.24802V4.67402C8.40048 5.00514 8.66876 5.27342 8.99989 5.27402C9.03992 5.2739 9.07985 5.26988 9.11911 5.26202C9.11911 5.26202 11.2841 5.0174 12.9274 4.6553ZM2.98711 12.6L3.00001 9.33056V6.30002C3.00001 6.13433 2.86569 6.00002 2.70001 6.00002H1.50001C1.33432 6.00002 1.20001 6.13433 1.20001 6.30002V13.5C1.20001 13.6657 1.33432 13.8 1.50001 13.8H2.70001C2.86569 13.8 3.00001 13.6657 3.00001 13.5V12.6064L2.98711 12.6Z" fill="#19DB60"/>
</svg>
