<svg width="154" height="154" viewBox="0 0 154 154" fill="none" xmlns="http://www.w3.org/2000/svg">
<path d="M75.25 2.74241C76.3329 2.1172 77.6671 2.1172 78.75 2.74241L140.434 38.3557C141.517 38.9809 142.184 40.1363 142.184 41.3867V112.613C142.184 113.864 141.517 115.019 140.434 115.644L78.75 151.258C77.6671 151.883 76.3329 151.883 75.25 151.258L13.566 115.644C12.4831 115.019 11.816 113.864 11.816 112.613V41.3867C11.816 40.1363 12.4831 38.9809 13.566 38.3557L75.25 2.74241Z" stroke="#9C9EA3" stroke-width="3"/>
<path d="M87.8763 75.0557C87.6535 74.5635 87.164 74.25 86.625 74.25H81.125V56.375C81.125 55.616 80.509 55 79.75 55H74.25C73.491 55 72.875 55.616 72.875 56.375V74.25H67.375C66.836 74.25 66.3465 74.5662 66.1238 75.0557C65.8983 75.548 65.9863 76.1227 66.341 76.5298L75.966 87.5298C76.2273 87.8295 76.604 88 77 88C77.396 88 77.7728 87.8268 78.034 87.5298L87.659 76.5298C88.0165 76.1255 88.099 75.548 87.8763 75.0557Z" fill="#9C9EA3"/>
<path d="M92.125 85.25V93.5H61.875V85.25H56.375V96.25C56.375 97.7708 57.607 99 59.125 99H94.875C96.3957 99 97.625 97.7708 97.625 96.25V85.25H92.125Z" fill="#9C9EA3"/>
</svg>
