<svg width="152" height="152" viewBox="0 0 152 152" fill="none" xmlns="http://www.w3.org/2000/svg">
<path d="M11.6821 38.866L76 1.73205L140.318 38.866V113.134L76 150.268L11.6821 113.134V38.866Z" stroke="#9C9EA3" stroke-width="3"/>
<path fill-rule="evenodd" clip-rule="evenodd" d="M94.9766 51.74C95.0026 51.8177 95.0189 51.8983 95.0252 51.98L95.0294 52V60C95.0294 60.5523 94.5817 61 94.0294 61C93.4771 61 93.0294 60.5523 93.0294 60V54.4976C78.7064 69.1054 56.7248 80.7636 56.494 80.8848C56.1766 81.0652 55.786 81.0582 55.4752 80.8666C55.1644 80.6749 54.9827 80.3291 55.0013 79.9645C55.0199 79.5998 55.2357 79.2742 55.5644 79.1152C55.7894 78.996 77.6116 67.42 91.6982 53H86.0294C85.4771 53 85.0294 52.5523 85.0294 52C85.0294 51.4477 85.4771 51 86.0294 51H94.0294C94.0777 51.0057 94.1254 51.0152 94.1722 51.0284C94.2466 51.0346 94.3199 51.0495 94.3908 51.0728C94.4563 51.1026 94.5182 51.1398 94.5752 51.1836C94.6212 51.2067 94.6653 51.2335 94.707 51.2636L94.7204 51.2816C94.7683 51.3344 94.8103 51.3922 94.8456 51.454C94.8825 51.4997 94.9154 51.5486 94.9438 51.6C94.958 51.6458 94.969 51.6926 94.9766 51.74ZM90.0295 65H88.0295C86.3726 65 85.0295 66.3431 85.0295 68V98C85.0295 99.6569 86.3726 101 88.0295 101H90.0295C91.6863 101 93.0295 99.6569 93.0295 98V68C93.0295 66.3431 91.6863 65 90.0295 65ZM74.0295 77H76.0295C77.6863 77 79.0295 78.3431 79.0295 80V98C79.0295 99.6569 77.6863 101 76.0295 101H74.0295C72.3726 101 71.0295 99.6569 71.0295 98V80C71.0295 78.3431 72.3726 77 74.0295 77ZM65.0295 98V90C65.0295 88.3431 63.6863 87 62.0295 87H60.0295C58.3726 87 57.0295 88.3431 57.0295 90V98C57.0295 99.6569 58.3726 101 60.0295 101H62.0295C63.6863 101 65.0295 99.6569 65.0295 98Z" fill="#9C9EA3"/>
</svg>
