<svg width="154" height="154" viewBox="0 0 154 154" fill="none" xmlns="http://www.w3.org/2000/svg">
<path d="M75.25 2.74241C76.3329 2.1172 77.6671 2.1172 78.75 2.74241L140.434 38.3557C141.517 38.9809 142.184 40.1363 142.184 41.3867V112.613C142.184 113.864 141.517 115.019 140.434 115.644L78.75 151.258C77.6671 151.883 76.3329 151.883 75.25 151.258L13.566 115.644C12.4831 115.019 11.816 113.864 11.816 112.613V41.3867C11.816 40.1363 12.4831 38.9809 13.566 38.3557L75.25 2.74241Z" stroke="#9C9EA3" stroke-width="3"/>
<path fill-rule="evenodd" clip-rule="evenodd" d="M76.9986 92C66.5052 92 57.9986 83.4934 57.9986 73C57.9986 62.5066 66.5052 54 76.9986 54C87.492 54 95.9986 62.5066 95.9986 73C95.9867 83.4885 87.487 91.9881 76.9986 92ZM67.9985 73C67.9985 68.0294 72.028 64 76.9985 64C81.9668 64.0055 85.993 68.0317 85.9985 73C85.9985 77.9705 81.9691 82 76.9985 82C72.028 82 67.9985 77.9705 67.9985 73ZM70.9404 92.957L62.1922 101.705C61.9161 101.981 61.5046 102.071 61.1383 101.936C60.7721 101.801 60.5181 101.464 60.488 101.075L60.013 94.9044C59.975 94.4129 59.5845 94.0224 59.093 93.9844L52.9234 93.5098C52.534 93.4798 52.1976 93.2259 52.0621 92.8597C51.9266 92.4934 52.0168 92.0817 52.293 91.8056L59.7826 84.3164C62.3957 88.3956 66.337 91.4477 70.9404 92.957ZM101.704 91.8057L94.7704 84.8721C92.0124 88.8861 87.9464 91.818 83.2668 93.1671L91.8052 101.705C92.0812 101.981 92.4928 102.071 92.859 101.936C93.2253 101.801 93.4792 101.465 93.5094 101.075L93.9844 94.9045C94.0224 94.413 94.4129 94.0225 94.9044 93.9845L101.074 93.5099C101.463 93.4799 101.8 93.2261 101.935 92.8598C102.07 92.4935 101.98 92.0818 101.704 91.8057H101.704ZM76.9985 62.0001C83.0737 62.0001 87.9985 66.925 87.9985 73.0001C87.9985 75.9175 86.8396 78.7154 84.7767 80.7783C82.7138 82.8412 79.9159 84.0001 76.9985 84.0001C70.9234 84.0001 65.9985 79.0752 65.9985 73.0001C65.9985 66.925 70.9234 62.0001 76.9985 62.0001Z" fill="#9C9EA3"/>
</svg>
