<svg width="32" height="32" viewBox="0 0 32 32" fill="none" xmlns="http://www.w3.org/2000/svg">
<path fill-rule="evenodd" clip-rule="evenodd" d="M3.84009 15.36V1.28003H30.7201V15.36C30.7201 21.28 23.7601 30.72 17.2801 30.72C10.8001 30.72 3.84009 21.28 3.84009 15.36ZM7.68009 16C7.68009 20.395 12.737 26.88 17.2801 26.88C17.6335 26.88 17.9201 26.5935 17.9201 26.24C17.9201 25.8866 17.6335 25.6 17.2801 25.6C13.5032 25.6 8.96009 19.7038 8.96009 16V6.40003H14.7201C15.0736 6.40003 15.3601 6.11349 15.3601 5.76003C15.3601 5.40657 15.0736 5.12003 14.7201 5.12003H8.32009C7.96663 5.12003 7.68009 5.40657 7.68009 5.76003V16Z" fill="#19DB60"/>
<path fill-rule="evenodd" clip-rule="evenodd" d="M3.84009 15.36V1.28003H30.7201V15.36C30.7201 21.28 23.7601 30.72 17.2801 30.72C10.8001 30.72 3.84009 21.28 3.84009 15.36ZM7.68009 16C7.68009 20.395 12.737 26.88 17.2801 26.88C17.6335 26.88 17.9201 26.5935 17.9201 26.24C17.9201 25.8866 17.6335 25.6 17.2801 25.6C13.5032 25.6 8.96009 19.7038 8.96009 16V6.40003H14.7201C15.0736 6.40003 15.3601 6.11349 15.3601 5.76003C15.3601 5.40657 15.0736 5.12003 14.7201 5.12003H8.32009C7.96663 5.12003 7.68009 5.40657 7.68009 5.76003V16Z" fill="url(#paint0_linear)"/>
<defs>
<linearGradient id="paint0_linear" x1="61.5001" y1="7" x2="-0.999937" y2="14" gradientUnits="userSpaceOnUse">
<stop stop-color="#EBFF00"/>
<stop offset="1" stop-color="#19DB60"/>
</linearGradient>
</defs>
</svg>
