<svg width="32" height="32" viewBox="0 0 32 32" fill="none" xmlns="http://www.w3.org/2000/svg">
<path fill-rule="evenodd" clip-rule="evenodd" d="M28.1451 0.4736C28.1617 0.523328 28.1722 0.574917 28.1762 0.6272L28.1789 0.64V5.76C28.1789 6.11346 27.8924 6.4 27.5389 6.4C27.1854 6.4 26.8989 6.11346 26.8989 5.76V2.23846C17.7322 11.5875 3.66395 19.0487 3.51624 19.1263C3.31306 19.2417 3.0631 19.2373 2.86418 19.1146C2.66526 18.992 2.549 18.7706 2.56089 18.5373C2.57278 18.3039 2.71094 18.0955 2.92129 17.9937C3.06529 17.9174 17.0315 10.5088 26.0469 1.28H22.4189C22.0654 1.28 21.7789 0.993462 21.7789 0.64C21.7789 0.286538 22.0654 0 22.4189 0H27.5389C27.5698 0.00367856 27.6003 0.00975558 27.6303 0.018176C27.6779 0.0221539 27.7248 0.0316909 27.7702 0.046592C27.8121 0.0656659 27.8517 0.089457 27.8882 0.117504C27.9176 0.132306 27.9458 0.149426 27.9726 0.168704L27.9811 0.180224C28.0118 0.213997 28.0386 0.250992 28.0613 0.29056C28.0849 0.319829 28.1059 0.351093 28.1241 0.384C28.1332 0.413338 28.1402 0.443279 28.1451 0.4736ZM24.9789 8.96H23.6989C22.6385 8.96 21.7789 9.81961 21.7789 10.88V30.08C21.7789 31.1404 22.6385 32 23.6989 32H24.9789C26.0393 32 26.8989 31.1404 26.8989 30.08V10.88C26.8989 9.81961 26.0393 8.96 24.9789 8.96ZM14.7389 16.64H16.0189C17.0793 16.64 17.9389 17.4996 17.9389 18.56V30.08C17.9389 31.1404 17.0793 32 16.0189 32H14.7389C13.6785 32 12.8189 31.1404 12.8189 30.08V18.56C12.8189 17.4996 13.6785 16.64 14.7389 16.64ZM8.97891 30.08V24.96C8.97891 23.8996 8.1193 23.04 7.05891 23.04H5.77891C4.71852 23.04 3.85891 23.8996 3.85891 24.96V30.08C3.85891 31.1404 4.71852 32 5.77891 32H7.05891C8.1193 32 8.97891 31.1404 8.97891 30.08Z" fill="#19DB60"/>
<path fill-rule="evenodd" clip-rule="evenodd" d="M28.1451 0.4736C28.1617 0.523328 28.1722 0.574917 28.1762 0.6272L28.1789 0.64V5.76C28.1789 6.11346 27.8924 6.4 27.5389 6.4C27.1854 6.4 26.8989 6.11346 26.8989 5.76V2.23846C17.7322 11.5875 3.66395 19.0487 3.51624 19.1263C3.31306 19.2417 3.0631 19.2373 2.86418 19.1146C2.66526 18.992 2.549 18.7706 2.56089 18.5373C2.57278 18.3039 2.71094 18.0955 2.92129 17.9937C3.06529 17.9174 17.0315 10.5088 26.0469 1.28H22.4189C22.0654 1.28 21.7789 0.993462 21.7789 0.64C21.7789 0.286538 22.0654 0 22.4189 0H27.5389C27.5698 0.00367856 27.6003 0.00975558 27.6303 0.018176C27.6779 0.0221539 27.7248 0.0316909 27.7702 0.046592C27.8121 0.0656659 27.8517 0.089457 27.8882 0.117504C27.9176 0.132306 27.9458 0.149426 27.9726 0.168704L27.9811 0.180224C28.0118 0.213997 28.0386 0.250992 28.0613 0.29056C28.0849 0.319829 28.1059 0.351093 28.1241 0.384C28.1332 0.413338 28.1402 0.443279 28.1451 0.4736ZM24.9789 8.96H23.6989C22.6385 8.96 21.7789 9.81961 21.7789 10.88V30.08C21.7789 31.1404 22.6385 32 23.6989 32H24.9789C26.0393 32 26.8989 31.1404 26.8989 30.08V10.88C26.8989 9.81961 26.0393 8.96 24.9789 8.96ZM14.7389 16.64H16.0189C17.0793 16.64 17.9389 17.4996 17.9389 18.56V30.08C17.9389 31.1404 17.0793 32 16.0189 32H14.7389C13.6785 32 12.8189 31.1404 12.8189 30.08V18.56C12.8189 17.4996 13.6785 16.64 14.7389 16.64ZM8.97891 30.08V24.96C8.97891 23.8996 8.1193 23.04 7.05891 23.04H5.77891C4.71852 23.04 3.85891 23.8996 3.85891 24.96V30.08C3.85891 31.1404 4.71852 32 5.77891 32H7.05891C8.1193 32 8.97891 31.1404 8.97891 30.08Z" fill="url(#paint0_linear)"/>
<defs>
<linearGradient id="paint0_linear" x1="65.5" y1="13.5" x2="-7.5" y2="18.5" gradientUnits="userSpaceOnUse">
<stop stop-color="#FAFF00"/>
<stop offset="1" stop-color="#25DD61"/>
</linearGradient>
</defs>
</svg>
