<svg width="32" height="32" viewBox="0 0 32 32" fill="none" xmlns="http://www.w3.org/2000/svg">
<path fill-rule="evenodd" clip-rule="evenodd" d="M10.6928 7.86766C9.47565 6.64986 9.53812 3.01108 9.79002 1.25095C14.8088 -0.859213 20.5562 -0.272972 25.0456 2.80705C24.3314 3.48948 23.8859 4.40564 23.7903 5.38881C23.66 6.86091 24.1523 8.32027 25.1477 9.41262C25.614 9.88007 25.6102 12.3338 24.9045 14.6807C24.5155 15.9002 23.3527 16.7036 22.0745 16.6362C20.7962 16.5688 19.7244 15.6475 19.4658 14.3939C19.2958 13.5288 18.3778 9.15201 17.0933 7.86766C16.2285 7.0028 14.9379 7.3996 13.687 7.78419L13.6757 7.78766C12.2603 8.22388 11.289 8.4658 10.6928 7.86766ZM26.0956 3.59244C25.5101 4.07269 25.1391 4.7656 25.064 5.5191C24.9747 6.60823 25.3316 7.68693 26.0528 8.5079C27.2066 9.66233 26.7303 13.0519 26.1296 15.0497C25.5715 16.8324 23.8776 18.0112 22.0121 17.915C20.1466 17.8189 18.5828 16.4722 18.2109 14.6417C17.9311 12.571 17.2437 10.5763 16.1885 8.77286C15.8672 8.45286 14.9469 8.73535 14.0523 9.01094C12.681 9.43334 10.9735 9.95903 9.7885 8.77286C8.2854 7.26924 8.25404 3.9205 8.42991 1.90412C3.86092 4.35277 0.763947 8.86596 0.122826 14.0099C-0.518295 19.1539 1.37614 24.2892 5.20431 27.7844C5.43471 24.4598 6.29141 18.6591 9.45762 17.9364C10.72 17.5337 12.0932 17.6758 13.2464 18.3283C14.464 19.2984 15.2251 20.7296 15.349 22.2815C15.8391 24.8801 17.3354 26.2401 18.5603 26.2401C19.3891 26.2401 20.3715 24.8532 21.2378 23.6301L21.2399 23.6272C22.3367 22.0794 23.4701 20.4801 24.9603 20.4801C27.0876 20.4801 28.5304 22.3105 28.9667 25.3477C33.9369 18.4836 32.6763 8.93198 26.0957 3.59218L26.0956 3.59244ZM22.2828 24.3702C23.1492 23.147 24.1316 21.7602 24.9604 21.7602C26.9272 21.7602 27.7124 24.2414 27.8189 26.7587C22.2893 32.869 13.0124 33.7538 6.42762 28.7987C6.58518 24.8307 7.52202 19.691 9.74282 19.1839C10.6672 18.8704 11.6796 18.9481 12.5454 19.3989C13.4515 20.1948 14.0071 21.3159 14.0916 22.5189C14.6466 25.4633 16.4841 27.5202 18.5604 27.5202C20.0506 27.5202 21.184 25.9209 22.2808 24.3731L22.2828 24.3702Z" fill="#19DB60"/>
<path fill-rule="evenodd" clip-rule="evenodd" d="M10.6928 7.86766C9.47565 6.64986 9.53812 3.01108 9.79002 1.25095C14.8088 -0.859213 20.5562 -0.272972 25.0456 2.80705C24.3314 3.48948 23.8859 4.40564 23.7903 5.38881C23.66 6.86091 24.1523 8.32027 25.1477 9.41262C25.614 9.88007 25.6102 12.3338 24.9045 14.6807C24.5155 15.9002 23.3527 16.7036 22.0745 16.6362C20.7962 16.5688 19.7244 15.6475 19.4658 14.3939C19.2958 13.5288 18.3778 9.15201 17.0933 7.86766C16.2285 7.0028 14.9379 7.3996 13.687 7.78419L13.6757 7.78766C12.2603 8.22388 11.289 8.4658 10.6928 7.86766ZM26.0956 3.59244C25.5101 4.07269 25.1391 4.7656 25.064 5.5191C24.9747 6.60823 25.3316 7.68693 26.0528 8.5079C27.2066 9.66233 26.7303 13.0519 26.1296 15.0497C25.5715 16.8324 23.8776 18.0112 22.0121 17.915C20.1466 17.8189 18.5828 16.4722 18.2109 14.6417C17.9311 12.571 17.2437 10.5763 16.1885 8.77286C15.8672 8.45286 14.9469 8.73535 14.0523 9.01094C12.681 9.43334 10.9735 9.95903 9.7885 8.77286C8.2854 7.26924 8.25404 3.9205 8.42991 1.90412C3.86092 4.35277 0.763947 8.86596 0.122826 14.0099C-0.518295 19.1539 1.37614 24.2892 5.20431 27.7844C5.43471 24.4598 6.29141 18.6591 9.45762 17.9364C10.72 17.5337 12.0932 17.6758 13.2464 18.3283C14.464 19.2984 15.2251 20.7296 15.349 22.2815C15.8391 24.8801 17.3354 26.2401 18.5603 26.2401C19.3891 26.2401 20.3715 24.8532 21.2378 23.6301L21.2399 23.6272C22.3367 22.0794 23.4701 20.4801 24.9603 20.4801C27.0876 20.4801 28.5304 22.3105 28.9667 25.3477C33.9369 18.4836 32.6763 8.93198 26.0957 3.59218L26.0956 3.59244ZM22.2828 24.3702C23.1492 23.147 24.1316 21.7602 24.9604 21.7602C26.9272 21.7602 27.7124 24.2414 27.8189 26.7587C22.2893 32.869 13.0124 33.7538 6.42762 28.7987C6.58518 24.8307 7.52202 19.691 9.74282 19.1839C10.6672 18.8704 11.6796 18.9481 12.5454 19.3989C13.4515 20.1948 14.0071 21.3159 14.0916 22.5189C14.6466 25.4633 16.4841 27.5202 18.5604 27.5202C20.0506 27.5202 21.184 25.9209 22.2808 24.3731L22.2828 24.3702Z" fill="url(#paint0_linear)"/>
<defs>
<linearGradient id="paint0_linear" x1="88" y1="12.5" x2="-13.5" y2="20" gradientUnits="userSpaceOnUse">
<stop stop-color="#FFE600"/>
<stop offset="0.991343" stop-color="#1DDC63"/>
</linearGradient>
</defs>
</svg>
