<svg width="32" height="32" viewBox="0 0 32 32" fill="none" xmlns="http://www.w3.org/2000/svg">
<path fill-rule="evenodd" clip-rule="evenodd" d="M30.5268 15.8605C31.4416 14.1245 31.9456 12.2016 32 10.24C32 4.88067 28.6565 1.28003 23.68 1.28003C20.2285 1.28003 17.4506 3.87459 16.0058 5.56675C14.5715 3.87203 11.8079 1.28003 8.32 1.28003C3.34349 1.28003 0 4.88067 0 10.24C0 19.6321 14.2567 29.5125 15.2364 30.1914L15.2689 30.2139L15.996 30.7196L16.7256 30.3045C19.1355 28.6205 21.4173 26.7601 23.552 24.7386L15.5788 17.7618C15.3174 17.5327 15.2863 17.137 15.5087 16.8699L21.9087 9.18992C22.0191 9.05759 22.1782 8.97536 22.35 8.96182C22.5214 8.95057 22.6905 9.00664 22.8212 9.11811L30.5268 15.8605ZM29.906 17.0181L22.4724 10.5132L16.8918 17.21L24.4736 23.8437C26.5699 21.8112 28.3957 19.5171 29.906 17.0181ZM21.76 17.28C21.76 16.9266 21.4735 16.64 21.12 16.64C20.7665 16.64 20.48 16.9266 20.48 17.28C20.48 17.6335 20.7665 17.92 21.12 17.92C21.4735 17.92 21.76 17.6335 21.76 17.28ZM26.24 17.92C25.8865 17.92 25.6 17.6335 25.6 17.28C25.6 16.9266 25.8865 16.64 26.24 16.64C26.5935 16.64 26.88 16.9266 26.88 17.28C26.88 17.6335 26.5935 17.92 26.24 17.92ZM23.04 14.72C23.04 15.0735 23.3265 15.36 23.68 15.36C24.0335 15.36 24.32 15.0735 24.32 14.72C24.32 14.3666 24.0335 14.08 23.68 14.08C23.3265 14.08 23.04 14.3666 23.04 14.72ZM23.68 20.48C23.3265 20.48 23.04 20.1935 23.04 19.84C23.04 19.4866 23.3265 19.2 23.68 19.2C24.0335 19.2 24.32 19.4866 24.32 19.84C24.32 20.1935 24.0335 20.48 23.68 20.48Z" fill="#19DB60"/>
<path fill-rule="evenodd" clip-rule="evenodd" d="M30.5268 15.8605C31.4416 14.1245 31.9456 12.2016 32 10.24C32 4.88067 28.6565 1.28003 23.68 1.28003C20.2285 1.28003 17.4506 3.87459 16.0058 5.56675C14.5715 3.87203 11.8079 1.28003 8.32 1.28003C3.34349 1.28003 0 4.88067 0 10.24C0 19.6321 14.2567 29.5125 15.2364 30.1914L15.2689 30.2139L15.996 30.7196L16.7256 30.3045C19.1355 28.6205 21.4173 26.7601 23.552 24.7386L15.5788 17.7618C15.3174 17.5327 15.2863 17.137 15.5087 16.8699L21.9087 9.18992C22.0191 9.05759 22.1782 8.97536 22.35 8.96182C22.5214 8.95057 22.6905 9.00664 22.8212 9.11811L30.5268 15.8605ZM29.906 17.0181L22.4724 10.5132L16.8918 17.21L24.4736 23.8437C26.5699 21.8112 28.3957 19.5171 29.906 17.0181ZM21.76 17.28C21.76 16.9266 21.4735 16.64 21.12 16.64C20.7665 16.64 20.48 16.9266 20.48 17.28C20.48 17.6335 20.7665 17.92 21.12 17.92C21.4735 17.92 21.76 17.6335 21.76 17.28ZM26.24 17.92C25.8865 17.92 25.6 17.6335 25.6 17.28C25.6 16.9266 25.8865 16.64 26.24 16.64C26.5935 16.64 26.88 16.9266 26.88 17.28C26.88 17.6335 26.5935 17.92 26.24 17.92ZM23.04 14.72C23.04 15.0735 23.3265 15.36 23.68 15.36C24.0335 15.36 24.32 15.0735 24.32 14.72C24.32 14.3666 24.0335 14.08 23.68 14.08C23.3265 14.08 23.04 14.3666 23.04 14.72ZM23.68 20.48C23.3265 20.48 23.04 20.1935 23.04 19.84C23.04 19.4866 23.3265 19.2 23.68 19.2C24.0335 19.2 24.32 19.4866 24.32 19.84C24.32 20.1935 24.0335 20.48 23.68 20.48Z" fill="url(#paint0_linear)"/>
<defs>
<linearGradient id="paint0_linear" x1="65" y1="10.5" x2="-13.5" y2="22.5" gradientUnits="userSpaceOnUse">
<stop stop-color="#FFF500"/>
<stop offset="1" stop-color="#19DB60"/>
</linearGradient>
</defs>
</svg>
