<svg width="34" height="34" viewBox="0 0 34 34" fill="none" xmlns="http://www.w3.org/2000/svg">
<path d="M1.35998 28.5514L1.35998 5.43547C1.38415 4.90645 1.6979 4.43381 2.17603 4.20613C2.65415 3.97845 3.21884 4.03279 3.64478 4.34747L12.24 10.4862V5.43533C12.2642 4.90631 12.5779 4.43367 13.056 4.206C13.5342 3.97832 14.0988 4.03266 14.5248 4.34733L30.7088 15.9054C31.0667 16.152 31.2804 16.5588 31.2804 16.9934C31.2804 17.428 31.0667 17.8348 30.7088 18.0814L14.5248 29.6394C14.0988 29.9541 13.5342 30.0084 13.056 29.7807C12.5779 29.553 12.2642 29.0804 12.24 28.5514V23.5006L3.64478 29.6393C3.21886 29.9539 2.6542 30.0083 2.17608 29.7806C1.69796 29.553 1.3842 29.0804 1.35998 28.5514Z" fill="#19DB60"/>
<path d="M1.35998 28.5514L1.35998 5.43547C1.38415 4.90645 1.6979 4.43381 2.17603 4.20613C2.65415 3.97845 3.21884 4.03279 3.64478 4.34747L12.24 10.4862V5.43533C12.2642 4.90631 12.5779 4.43367 13.056 4.206C13.5342 3.97832 14.0988 4.03266 14.5248 4.34733L30.7088 15.9054C31.0667 16.152 31.2804 16.5588 31.2804 16.9934C31.2804 17.428 31.0667 17.8348 30.7088 18.0814L14.5248 29.6394C14.0988 29.9541 13.5342 30.0084 13.056 29.7807C12.5779 29.553 12.2642 29.0804 12.24 28.5514V23.5006L3.64478 29.6393C3.21886 29.9539 2.6542 30.0083 2.17608 29.7806C1.69796 29.553 1.3842 29.0804 1.35998 28.5514Z" fill="url(#paint0_linear)"/>
<defs>
<linearGradient id="paint0_linear" x1="75.5" y1="17.0001" x2="-14.5" y2="20.0001" gradientUnits="userSpaceOnUse">
<stop stop-color="#FAFF00"/>
<stop offset="1" stop-color="#19DB60"/>
</linearGradient>
</defs>
</svg>
