<svg width="32" height="32" viewBox="0 0 32 32" fill="none" xmlns="http://www.w3.org/2000/svg">
<path fill-rule="evenodd" clip-rule="evenodd" d="M15.9986 25.6C9.28282 25.6 3.8386 20.1558 3.8386 13.44C3.8386 6.72425 9.28282 1.28003 15.9986 1.28003C22.7144 1.28003 28.1586 6.72425 28.1586 13.44C28.151 20.1527 22.7112 25.5924 15.9986 25.6ZM10.2395 13.44C10.2395 10.2589 12.8184 7.68003 15.9995 7.68003C19.1792 7.68356 21.756 10.2603 21.7595 13.44C21.7595 16.6212 19.1807 19.2 15.9995 19.2C12.8184 19.2 10.2395 16.6212 10.2395 13.44ZM12.1218 26.2125L6.52298 31.8112C6.3463 31.9879 6.08293 32.0457 5.84853 31.9591C5.61413 31.8724 5.45159 31.6573 5.43229 31.4082L5.12829 27.4588C5.10399 27.1443 4.85406 26.8944 4.53949 26.87L0.590949 26.5663C0.341737 26.5471 0.126485 26.3846 0.0397691 26.1502C-0.0469465 25.9158 0.0107443 25.6523 0.187493 25.4756L4.98084 20.6825C6.65326 23.2933 9.17566 25.2466 12.1218 26.2125ZM31.8105 25.4756L27.3727 21.0381C25.6076 23.6071 23.0053 25.4835 20.0104 26.3469L25.475 31.8112C25.6517 31.988 25.915 32.0457 26.1494 31.9591C26.3838 31.8724 26.5464 31.6573 26.5657 31.4082L26.8697 27.4589C26.894 27.1443 27.1439 26.8944 27.4585 26.8701L31.4069 26.5663C31.6561 26.5471 31.8713 26.3847 31.9581 26.1502C32.0448 25.9158 31.9871 25.6524 31.8103 25.4756H31.8105ZM15.9996 6.40003C19.8877 6.40003 23.0396 9.55194 23.0396 13.44C23.0396 15.3072 22.2979 17.0978 20.9776 18.4181C19.6574 19.7383 17.8667 20.48 15.9996 20.48C12.1115 20.48 8.95959 17.3281 8.95959 13.44C8.95959 9.55194 12.1115 6.40003 15.9996 6.40003Z" fill="#19DB60"/>
<path fill-rule="evenodd" clip-rule="evenodd" d="M15.9986 25.6C9.28282 25.6 3.8386 20.1558 3.8386 13.44C3.8386 6.72425 9.28282 1.28003 15.9986 1.28003C22.7144 1.28003 28.1586 6.72425 28.1586 13.44C28.151 20.1527 22.7112 25.5924 15.9986 25.6ZM10.2395 13.44C10.2395 10.2589 12.8184 7.68003 15.9995 7.68003C19.1792 7.68356 21.756 10.2603 21.7595 13.44C21.7595 16.6212 19.1807 19.2 15.9995 19.2C12.8184 19.2 10.2395 16.6212 10.2395 13.44ZM12.1218 26.2125L6.52298 31.8112C6.3463 31.9879 6.08293 32.0457 5.84853 31.9591C5.61413 31.8724 5.45159 31.6573 5.43229 31.4082L5.12829 27.4588C5.10399 27.1443 4.85406 26.8944 4.53949 26.87L0.590949 26.5663C0.341737 26.5471 0.126485 26.3846 0.0397691 26.1502C-0.0469465 25.9158 0.0107443 25.6523 0.187493 25.4756L4.98084 20.6825C6.65326 23.2933 9.17566 25.2466 12.1218 26.2125ZM31.8105 25.4756L27.3727 21.0381C25.6076 23.6071 23.0053 25.4835 20.0104 26.3469L25.475 31.8112C25.6517 31.988 25.915 32.0457 26.1494 31.9591C26.3838 31.8724 26.5464 31.6573 26.5657 31.4082L26.8697 27.4589C26.894 27.1443 27.1439 26.8944 27.4585 26.8701L31.4069 26.5663C31.6561 26.5471 31.8713 26.3847 31.9581 26.1502C32.0448 25.9158 31.9871 25.6524 31.8103 25.4756H31.8105ZM15.9996 6.40003C19.8877 6.40003 23.0396 9.55194 23.0396 13.44C23.0396 15.3072 22.2979 17.0978 20.9776 18.4181C19.6574 19.7383 17.8667 20.48 15.9996 20.48C12.1115 20.48 8.95959 17.3281 8.95959 13.44C8.95959 9.55194 12.1115 6.40003 15.9996 6.40003Z" fill="url(#paint0_linear)"/>
<defs>
<linearGradient id="paint0_linear" x1="71.5" y1="17" x2="-18.5" y2="23" gradientUnits="userSpaceOnUse">
<stop stop-color="#FAFF00"/>
<stop offset="1" stop-color="#19DB60"/>
</linearGradient>
</defs>
</svg>
